<?xml version="1.0" encoding="UTF-8" standalone="no"?>
<!-- Created with Inkscape (http://www.inkscape.org/) -->
<svg
   xmlns:dc="http://purl.org/dc/elements/1.1/"
   xmlns:cc="http://creativecommons.org/ns#"
   xmlns:rdf="http://www.w3.org/1999/02/22-rdf-syntax-ns#"
   xmlns:svg="http://www.w3.org/2000/svg"
   xmlns="http://www.w3.org/2000/svg"
   xmlns:sodipodi="http://sodipodi.sourceforge.net/DTD/sodipodi-0.dtd"
   xmlns:inkscape="http://www.inkscape.org/namespaces/inkscape"
   width="210mm"
   height="297mm"
   id="svg2"
   sodipodi:version="0.32"
   inkscape:version="0.46"
   sodipodi:docname="crisk.svg"
   inkscape:output_extension="org.inkscape.output.svg.inkscape">
  <defs
     id="defs4">
    <inkscape:perspective
       sodipodi:type="inkscape:persp3d"
       inkscape:vp_x="0 : 526.18109 : 1"
       inkscape:vp_y="0 : 1000 : 0"
       inkscape:vp_z="744.09448 : 526.18109 : 1"
       inkscape:persp3d-origin="372.04724 : 350.78739 : 1"
       id="perspective10" />
  </defs>
  <sodipodi:namedview
     id="base"
     pagecolor="#ffffff"
     bordercolor="#666666"
     borderopacity="1.0"
     inkscape:pageopacity="0.0"
     inkscape:pageshadow="2"
     inkscape:zoom="0.59714111"
     inkscape:cx="304.71099"
     inkscape:cy="621.58395"
     inkscape:document-units="px"
     inkscape:current-layer="layer1"
     showgrid="false"
     inkscape:window-width="1092"
     inkscape:window-height="723"
     inkscape:window-x="0"
     inkscape:window-y="247" />
  <metadata
     id="metadata7">
    <rdf:RDF>
      <cc:Work
         rdf:about="">
        <dc:format>image/svg+xml</dc:format>
        <dc:type
           rdf:resource="http://purl.org/dc/dcmitype/StillImage" />
      </cc:Work>
    </rdf:RDF>
  </metadata>
  <g
     inkscape:label="Camada 1"
     inkscape:groupmode="layer"
     id="layer1">
    <g
       id="g3271">
      <path
         sodipodi:nodetypes="cssscsscssscsssscccssssccccssccccsccsccccccsccccsccscccsssccscsscsscsccsssssssscscccccsccscccccsccscccccsccccscccc"
         id="text2388"
         d="M 148.82889,424.73105 C 139.97034,420.96145 131.67721,418.88817 123.19563,418.88817 C 92.66192,418.88817 70.421265,443.57907 70.421265,476.37453 C 70.421265,510.1124 93.038879,533.48393 122.81867,533.48393 C 134.69289,533.48393 144.49386,530.27977 154.67177,523.68298 C 161.45703,519.34795 207.2214,483.57424 207.2214,479.42769 C 207.2214,475.65809 204.3942,471.30727 200.43612,471.30727 C 197.23197,471.30727 151.27912,509.73547 145.24777,513.12811 C 138.08554,517.08618 130.35785,519.15946 123.57259,519.15946 C 103.0283,519.15946 87.195973,503.13865 87.195973,476.37453 C 87.195973,447.34866 101.89743,431.32784 123.19563,431.32784 C 135.44681,431.32784 144.87081,438.11313 147.13257,446.78319 C 149.20585,455.0763 148.26346,459.59982 156.1796,459.59982 C 161.64552,459.59982 162.7764,457.14958 162.7764,452.24911 C 162.7764,450.92975 162.39944,443.57902 162.39944,429.44304 C 162.39944,423.03473 162.02247,420.20753 155.61416,420.20753 C 152.03305,420.20753 150.14825,421.52689 148.82889,424.73105 M 209.26973,517.8401 L 209.26973,479.76717 C 221.52091,465.81967 231.88732,458.46894 242.06523,458.46894 C 249.22745,458.46894 253.18554,464.12334 258.08602,464.12334 C 262.04409,464.12334 266.19065,459.97678 266.19065,455.45327 C 266.19065,448.668 259.40536,443.57903 247.9081,443.57903 C 233.20669,443.57903 220.76699,450.74128 209.26973,465.25422 L 209.26973,449.61039 C 209.26973,446.97167 207.57341,445.84079 204.18077,445.84079 L 183.25951,445.84079 C 178.35903,445.84079 175.90879,447.91407 175.90879,452.24911 C 175.90879,456.9611 178.54751,458.8459 184.57886,458.8459 C 185.52126,458.8459 187.21758,458.8459 189.29086,458.8459 L 195.5107,458.8459 L 195.5107,517.8401 L 179.30143,517.8401 C 174.21248,517.8401 171.57375,519.91339 171.57375,524.24842 C 171.57375,528.58345 174.21248,530.84521 179.11295,530.84521 L 239.23803,530.84521 C 244.70394,530.84521 246.77722,529.52585 246.77722,524.24842 C 246.77722,519.72491 244.51546,517.8401 239.80347,517.8401 L 209.26973,517.8401 M 325.31213,517.8401 L 325.31213,449.61039 C 325.31213,447.34863 323.61581,445.84079 320.03469,445.84079 L 293.08207,445.84079 C 288.1816,445.84079 285.73136,447.91407 285.73136,452.24911 C 285.73136,456.58414 288.37008,458.8459 293.45903,458.8459 L 311.36462,458.8459 L 311.36462,517.8401 L 283.28112,517.8401 C 278.19217,517.8401 275.55344,519.91339 275.55344,524.24842 C 275.55344,528.58345 278.00369,530.84521 282.90416,530.84521 L 354.33803,530.84521 C 359.80394,530.84521 361.87723,529.52585 361.87723,524.24842 C 361.87723,519.72491 359.61546,517.8401 354.90347,517.8401 L 325.31213,517.8401 M 308.16046,419.26513 C 308.16046,426.80432 310.04527,428.31216 317.77293,428.31216 C 326.63148,428.31216 327.19693,426.23888 327.19693,416.62641 C 327.19693,407.01395 326.25452,404.18674 317.77293,404.18674 C 309.29135,404.18674 308.16046,407.01395 308.16046,419.26513 M 377.98335,524.24842 C 377.98335,530.09129 380.4336,533.10697 384.76863,533.10697 C 386.84191,533.10697 389.85759,531.59913 394.19262,528.77194 C 404.55901,531.41065 413.79454,532.91849 422.08764,532.91849 C 445.08217,532.91849 458.0873,521.42121 458.0873,505.58891 C 458.0873,487.49486 445.45912,480.33261 421.14524,479.76717 C 403.05119,479.39021 392.4963,478.4478 392.4963,468.64686 C 392.4963,461.29615 399.47007,455.07631 411.72125,455.07631 C 421.33371,455.07631 428.11901,457.33807 435.09276,463.5579 C 440.55867,468.45837 442.44347,473.17037 446.59003,473.17037 C 451.11354,473.17037 452.80986,469.96621 452.80986,463.93486 L 452.80986,453.19151 C 452.80986,446.97168 450.73658,443.95599 446.59003,443.95599 C 441.68956,443.95599 439.80475,447.53711 437.16603,447.53711 C 434.52732,447.53711 427.17659,443.39055 413.79453,443.39055 C 390.98849,443.39055 378.36031,453.94544 378.36031,469.2123 C 378.36031,485.61003 391.74241,494.65708 416.81021,494.65708 C 419.44892,494.65708 421.14525,494.65708 422.08764,494.65708 C 436.03514,494.65708 442.82043,497.29581 442.82043,506.71979 C 442.82043,515.0129 434.5273,521.04426 421.14524,521.04426 C 408.70559,521.04426 398.1507,516.52074 393.25022,510.11243 C 389.66911,505.40044 390.23454,500.31148 384.58015,500.31148 C 379.67968,500.31148 377.98335,502.9502 377.98335,507.85067 L 377.98335,524.24842 M 498.57023,495.59948 L 506.86335,488.06028 L 534.19293,517.8401 C 529.48094,519.34794 527.03069,521.6097 527.03069,525.00234 C 527.03069,529.14889 529.48094,530.84521 534.75837,530.84521 L 559.63771,530.84521 C 564.3497,530.84521 566.98843,528.58345 566.98843,524.24842 C 566.98843,519.53643 564.91514,517.65162 559.63771,517.65162 L 551.53308,517.65162 L 516.85278,479.95565 L 530.23485,468.2699 C 536.83164,462.61551 543.05149,459.41134 547.575,458.8459 C 554.73723,457.9035 559.26075,458.46894 559.26075,452.06063 C 559.26075,447.91407 556.81051,445.84079 552.09852,445.84079 L 527.21917,445.84079 C 521.94174,445.84079 519.30302,447.72559 519.30302,451.30671 C 519.30302,454.1339 521.18782,456.20719 525.1459,457.9035 L 498.57023,480.14413 L 498.57023,414.17617 C 498.57023,411.91442 496.87391,410.40658 493.2928,410.40658 L 475.76417,410.40658 C 470.8637,410.40658 468.41345,412.66834 468.41345,417.00337 C 468.41345,423.03472 472.37154,423.60017 480.85313,423.60017 L 484.62272,423.60017 L 484.62272,517.8401 L 480.28769,517.8401 C 472.18306,517.8401 468.60193,518.59403 468.60193,524.24842 C 468.60193,528.58345 471.24066,530.84521 476.14113,530.84521 L 493.10432,530.84521 C 496.11999,530.84521 498.57023,528.01801 498.57023,522.74058 L 498.57023,495.59948"
         style="font-size:188.47987366px;font-style:normal;font-variant:normal;font-weight:normal;font-stretch:normal;fill:#000000;fill-opacity:1;stroke:none;stroke-width:1px;stroke-linecap:butt;stroke-linejoin:miter;stroke-opacity:1;font-family:Courier 10 Pitch;-inkscape-font-specification:Courier 10 Pitch"
         transform="scale(1.126293,0.8878685)" />
      <path
         id="path2395"
         d="M 66.985841,480.65505 L 661.48518,480.65505"
         style="fill:none;fill-rule:evenodd;stroke:#000000;stroke-width:2.54900002;stroke-linecap:butt;stroke-linejoin:miter;stroke-miterlimit:4;stroke-dasharray:none;stroke-opacity:1" />
    </g>
  </g>
</svg>
